# xmcd
#
# Track frame offsets:
#	150
#	18775
#	37670
#	53313
#	68824
#	87347
#	105115
#	118056
#	136304
#	160350
#	180983
#	198185
#	219106
#	235344
#	254022
#	271303
#	283262
#
# Disc length: 3993 seconds
#
# Revision: 0
# Processed by: cddbd v1.5.2PL0 Copyright (c) Steve Scherf et al.
# Submitted via: dBpowerAMP V4.0
#
DISCID=db0f9711
DTITLE=Alle - Verschiedenes
DYEAR=2004
DGENRE=Dance Hall
TTITLE0=wyclef Jean
TTITLE1=wyclef jean
TTITLE2=Bushido
TTITLE3=bushido
TTITLE4=bushido
TTITLE5=bushido
TTITLE6=Bushido
TTITLE7=bushido
TTITLE8=bushido
TTITLE9=bushido
TTITLE10=bushido
TTITLE11=missi
TTITLE12=nelly
TTITLE13=bob
TTITLE14=sean paul
TTITLE15=kak
TTITLE16=saen paul
EXTD=
EXTT0=
EXTT1=
EXTT2=
EXTT3=
EXTT4=
EXTT5=
EXTT6=
EXTT7=
EXTT8=
EXTT9=
EXTT10=
EXTT11=
EXTT12=
EXTT13=
EXTT14=
EXTT15=
EXTT16=
PLAYORDER=
